<?xml version="1.0" encoding="UTF-8"?>
<!DOCTYPE svg PUBLIC "-//W3C//DTD SVG 1.1//EN" "http://www.w3.org/Graphics/SVG/1.1/DTD/svg11.dtd">
<svg xmlns="http://www.w3.org/2000/svg" version="1.1" width="1563px" height="1563px" style="shape-rendering:geometricPrecision; text-rendering:geometricPrecision; image-rendering:optimizeQuality; fill-rule:evenodd; clip-rule:evenodd" xmlns:xlink="http://www.w3.org/1999/xlink">
<g><path style="opacity:0.863" fill="#444a1b" d="M 812.5,170.5 C 866.652,176.293 917.985,191.459 966.5,216C 980.057,220.684 993.39,225.851 1006.5,231.5C 1006.25,233.17 1005.58,234.67 1004.5,236C 1005.23,237.399 1005.73,238.899 1006,240.5C 1006.33,240.167 1006.67,239.833 1007,239.5C 1008.67,240.5 1010,241.833 1011,243.5C 1011.33,243.167 1011.67,242.833 1012,242.5C 1012.39,244.715 1013.39,246.048 1015,246.5C 1016.68,245.939 1018.01,244.939 1019,243.5C 1019.32,245.061 1020.15,246.228 1021.5,247C 1021.27,247.399 1020.94,247.565 1020.5,247.5C 1019.17,247.833 1019.17,248.167 1020.5,248.5C 1020.5,249.167 1020.83,249.5 1021.5,249.5C 1021.83,249.5 1022.17,249.5 1022.5,249.5C 1022.84,250.338 1023.51,250.672 1024.5,250.5C 1035.93,260.416 1047.6,270.25 1059.5,280C 1129.15,345.246 1173.15,425.246 1191.5,520C 1193.41,535.292 1195.41,550.458 1197.5,565.5C 1196.88,565.389 1196.38,565.056 1196,564.5C 1195.36,566.813 1194.03,568.48 1192,569.5C 1191.5,569.167 1191,568.833 1190.5,568.5C 1191.33,567.549 1191.49,566.549 1191,565.5C 1190.05,565.884 1189.22,566.217 1188.5,566.5C 1173.62,502.451 1146.28,444.451 1106.5,392.5C 1109.68,393.091 1112.01,392.091 1113.5,389.5C 1142.61,426.35 1165.11,467.35 1181,512.5C 1181.33,509.134 1181,505.801 1180,502.5C 1147.9,375.58 1074.4,281.747 959.5,221C 885.184,196.445 809.517,192.945 732.5,210.5C 732.265,206.676 730.265,204.676 726.5,204.5C 729.014,203.43 731.681,202.43 734.5,201.5C 773.692,193.462 813.359,190.629 853.5,193C 871.101,193.992 888.434,195.992 905.5,199C 877.021,189.135 847.687,182.635 817.5,179.5C 818.602,177.908 817.935,177.075 815.5,177C 815.042,174.602 813.708,172.936 811.5,172C 812.056,171.617 812.389,171.117 812.5,170.5 Z"/></g>
<g><path style="opacity:0.885" fill="#454a1b" d="M 836.5,217.5 C 834.302,216.986 832.302,215.986 830.5,214.5C 830.704,215.529 830.204,216.529 829,217.5C 828.329,216.748 827.496,216.414 826.5,216.5C 827.36,214.386 829.027,213.22 831.5,213C 823.566,208.649 815.066,207.149 806,208.5C 803.049,209.814 800.216,211.314 797.5,213C 801.251,213.582 802.918,215.749 802.5,219.5C 802.363,220.78 804.697,221.113 809.5,220.5C 809.72,223.4 809.054,226.067 807.5,228.5C 804.697,228.105 802.03,228.105 799.5,228.5C 799.027,227.094 798.027,226.427 796.5,226.5C 795.597,224.38 794.263,224.046 792.5,225.5C 790.658,225.277 788.825,224.943 787,224.5C 785.124,224.525 783.624,225.191 782.5,226.5C 781.034,227.347 780.2,228.68 780,230.5C 779.751,229.376 779.251,228.376 778.5,227.5C 778.617,229.799 777.617,231.965 775.5,234C 776.416,234.278 777.082,234.778 777.5,235.5C 764.806,235.309 752.139,235.809 739.5,237C 743.574,239.488 747.907,241.488 752.5,243C 778.777,240.436 793.443,252.103 796.5,278C 796.419,280.625 795.752,282.959 794.5,285C 779.971,285.748 767.138,281.581 756,272.5C 751.119,265.274 748.952,257.274 749.5,248.5C 747.436,248.313 745.436,247.813 743.5,247C 739.993,244.746 736.327,242.746 732.5,241C 731.881,239.243 730.714,238.076 729,237.5C 679.439,244.137 632.439,258.804 588,281.5C 577.703,287.731 567.203,293.564 556.5,299C 482.563,361.69 435.729,440.857 416,536.5C 407.886,578.788 405.886,621.455 410,664.5C 410.871,671.233 412.037,677.899 413.5,684.5C 411.306,685.384 408.972,686.384 406.5,687.5C 389.523,577.872 410.69,476.539 470,383.5C 480.294,369.853 490.294,356.186 500,342.5C 493.663,348.004 487.496,353.671 481.5,359.5C 481.821,356.839 481.154,354.172 479.5,351.5C 499.538,330.64 521.871,312.473 546.5,297C 587.932,260.247 635.265,232.581 688.5,214C 700.839,209.724 713.506,206.558 726.5,204.5C 730.265,204.676 732.265,206.676 732.5,210.5C 686.415,220.711 643.415,238.377 603.5,263.5C 602.167,264.167 602.167,264.833 603.5,265.5C 656.041,241.028 711.207,228.361 769,227.5C 774.028,223.976 779.194,220.643 784.5,217.5C 786.414,213.39 789.081,209.89 792.5,207C 796.54,205.31 800.54,203.643 804.5,202C 809.5,201.333 814.5,201.333 819.5,202C 826.319,204.268 833.319,206.101 840.5,207.5C 842.147,208.278 843.48,209.444 844.5,211C 842.833,213 841.167,215 839.5,217C 838.552,217.483 837.552,217.649 836.5,217.5 Z M 792.5,225.5 C 789.375,226.479 786.042,226.813 782.5,226.5C 783.624,225.191 785.124,224.525 787,224.5C 788.825,224.943 790.658,225.277 792.5,225.5 Z M 766.5,250.5 C 781.211,253.89 789.211,263.223 790.5,278.5C 786.123,278.423 781.79,277.923 777.5,277C 771.836,275.084 766.669,272.251 762,268.5C 760.667,266.5 759.333,264.5 758,262.5C 756.682,259.594 756.348,256.594 757,253.5C 762.088,256.583 766.588,260.417 770.5,265C 774.662,265.548 776.162,263.714 775,259.5C 772.977,256.48 770.31,254.146 767,252.5C 766.536,251.906 766.369,251.239 766.5,250.5 Z M 796.5,226.5 C 798.027,226.427 799.027,227.094 799.5,228.5C 797.692,228.509 796.025,228.009 794.5,227C 795.094,226.536 795.761,226.369 796.5,226.5 Z"/></g>
<g><path style="opacity:0.831" fill="#454a1a" d="M 836.5,217.5 C 828.198,222.659 819.198,226.159 809.5,228C 825.967,229.246 842.301,231.413 858.5,234.5C 869.112,229.479 880.446,227.312 892.5,228C 899.733,219.179 909.066,216.179 920.5,219C 931.575,223.716 933.408,230.883 926,240.5C 916.306,245.655 906.473,245.822 896.5,241C 892.493,234.814 886.826,232.814 879.5,235C 876.711,235.241 874.044,235.908 871.5,237C 970.19,260.368 1050.86,311.201 1113.5,389.5C 1112.01,392.091 1109.68,393.091 1106.5,392.5C 1062.82,339.651 1009.82,298.818 947.5,270C 939.656,267.387 931.99,264.387 924.5,261C 923.056,260.219 921.723,260.386 920.5,261.5C 923.353,265.187 926.686,268.353 930.5,271C 949.504,272.003 958.837,282.003 958.5,301C 958.333,303.833 958.167,306.667 958,309.5C 957.275,310.059 956.442,310.392 955.5,310.5C 948.364,306.431 941.031,302.597 933.5,299C 925.944,292.69 922.444,284.523 923,274.5C 917.987,270.234 914.154,265.067 911.5,259C 910.495,257.328 909.161,255.995 907.5,255C 878.537,245.23 848.87,239.23 818.5,237C 822.777,240.812 827.443,244.145 832.5,247C 836.214,247.43 839.547,246.43 842.5,244C 851.131,241.884 858.631,243.717 865,249.5C 868.232,255.198 868.232,260.864 865,266.5C 859.168,269.362 853.002,270.196 846.5,269C 844.099,268.205 841.932,267.038 840,265.5C 836.956,262.057 834.456,258.223 832.5,254C 822.791,250.626 815.124,244.626 809.5,236C 798.839,235.5 788.172,235.333 777.5,235.5C 777.082,234.778 776.416,234.278 775.5,234C 777.617,231.965 778.617,229.799 778.5,227.5C 779.251,228.376 779.751,229.376 780,230.5C 780.2,228.68 781.034,227.347 782.5,226.5C 786.042,226.813 789.375,226.479 792.5,225.5C 794.263,224.046 795.597,224.38 796.5,226.5C 795.761,226.369 795.094,226.536 794.5,227C 796.025,228.009 797.692,228.509 799.5,228.5C 802.03,228.105 804.697,228.105 807.5,228.5C 809.054,226.067 809.72,223.4 809.5,220.5C 815.208,219.323 820.874,217.99 826.5,216.5C 827.496,216.414 828.329,216.748 829,217.5C 830.204,216.529 830.704,215.529 830.5,214.5C 832.302,215.986 834.302,216.986 836.5,217.5 Z M 930.5,281.5 C 933.637,283.895 935.97,286.895 937.5,290.5C 939.396,291.466 941.396,291.799 943.5,291.5C 944.13,287.099 942.797,283.432 939.5,280.5C 940.79,279.592 942.123,279.759 943.5,281C 949.762,286.363 952.595,293.197 952,301.5C 948.568,298.847 944.735,296.847 940.5,295.5C 938.5,293.833 936.5,292.167 934.5,290.5C 932.342,287.852 931.008,284.852 930.5,281.5 Z M 845.5,250.5 C 849.48,249.158 853.48,249.491 857.5,251.5C 862.615,258.148 861.115,262.148 853,263.5C 848.922,263.044 845.422,261.378 842.5,258.5C 843,258.167 843.5,257.833 844,257.5C 845.932,259.178 848.098,259.678 850.5,259C 851.554,257.612 851.72,256.112 851,254.5C 848.833,253.512 847,252.179 845.5,250.5 Z M 905.5,226.5 C 905.157,228.225 904.157,228.725 902.5,228C 903.244,226.961 904.244,226.461 905.5,226.5 Z M 796.5,226.5 C 798.027,226.427 799.027,227.094 799.5,228.5C 797.692,228.509 796.025,228.009 794.5,227C 795.094,226.536 795.761,226.369 796.5,226.5 Z M 905.5,226.5 C 913.02,222.766 919.354,224.266 924.5,231C 920.862,236.884 915.528,239.218 908.5,238C 899.087,235.911 898.754,234.577 907.5,234C 910.505,230.521 909.839,228.021 905.5,226.5 Z"/></g>
<g><path style="opacity:0.857" fill="#444a1b" d="M 812.5,170.5 C 812.389,171.117 812.056,171.617 811.5,172C 813.708,172.936 815.042,174.602 815.5,177C 817.935,177.075 818.602,177.908 817.5,179.5C 802.21,177.107 786.71,176.107 771,176.5C 711.281,177.51 654.114,190.01 599.5,214C 573.576,226.276 548.91,240.609 525.5,257C 518.166,263.323 510.5,269.323 502.5,275C 494.398,282.89 486.065,290.557 477.5,298C 448.939,327.588 424.605,360.421 404.5,396.5C 399.977,405.399 395.644,414.399 391.5,423.5C 391.667,423.833 391.833,424.167 392,424.5C 398.387,417.396 405.053,417.062 412,423.5C 413.768,435.225 408.935,442.559 397.5,445.5C 394.89,451.953 390.89,457.453 385.5,462C 380.717,464.462 376.55,467.628 373,471.5C 363.947,500.475 358.114,530.141 355.5,560.5C 354.199,559.36 353.032,558.027 352,556.5C 351.167,557.333 350.333,558.167 349.5,559C 350.451,559.718 350.617,560.551 350,561.5C 348.711,559.355 347.878,557.022 347.5,554.5C 348.63,549.209 349.797,543.876 351,538.5C 352.072,532.859 352.405,527.193 352,521.5C 348.414,517.94 345.081,514.274 342,510.5C 340.274,504.968 339.274,499.301 339,493.5C 335.959,490.824 332.959,488.157 330,485.5C 326.667,478.167 326.667,470.833 330,463.5C 338.501,456.111 345.834,457.111 352,466.5C 355.453,475.909 353.453,483.909 346,490.5C 344.312,499.787 346.979,507.454 354,513.5C 361.421,476.568 373.587,441.401 390.5,408C 388.055,399.949 387.222,391.782 388,383.5C 383.672,378.681 381.838,373.014 382.5,366.5C 382.105,356.792 385.439,348.625 392.5,342C 395.833,339.667 399.167,337.333 402.5,335C 405.025,334.104 407.192,334.604 409,336.5C 409.977,341.275 411.311,345.942 413,350.5C 413.56,355.91 413.56,361.244 413,366.5C 485.164,256.775 586.664,191.942 717.5,172C 749.203,168.734 780.869,168.234 812.5,170.5 Z M 403.5,381.5 C 400.523,387.011 397.69,392.677 395,398.5C 394.271,394.623 394.438,390.789 395.5,387C 397.992,384.92 400.658,383.087 403.5,381.5 Z M 410.5,367.5 C 412.337,367.639 412.67,368.306 411.5,369.5C 410.702,369.043 410.369,368.376 410.5,367.5 Z M 400.5,373.5 C 400.663,371.143 400.497,368.81 400,366.5C 396.988,363.733 394.488,364.233 392.5,368C 393.357,368.689 394.023,369.522 394.5,370.5C 393.065,372.374 391.898,374.374 391,376.5C 386.236,362.127 390.236,350.794 403,342.5C 409.553,353.454 408.72,363.788 400.5,373.5 Z M 401.5,436.5 C 401.011,433.676 399.344,432.343 396.5,432.5C 397.067,426.865 400.067,424.865 405.5,426.5C 405.833,427.333 406.167,428.167 406.5,429C 405.187,431.809 403.52,434.309 401.5,436.5 Z M 378.5,457.5 C 378.571,454.689 379.238,452.022 380.5,449.5C 383.048,443.017 385.881,436.683 389,430.5C 393.848,442.795 390.348,451.795 378.5,457.5 Z M 339.5,464.5 C 347.446,468.336 349.112,474.002 344.5,481.5C 344.222,475.493 341.722,474.16 337,477.5C 336.667,478.833 336.333,480.167 336,481.5C 334.48,477.625 334.146,473.625 335,469.5C 336.025,467.313 337.525,465.646 339.5,464.5 Z"/></g>
<g><path style="opacity:0.863" fill="#454b1a" d="M 1006.5,231.5 C 1024.44,240.282 1041.78,250.115 1058.5,261C 1065,263.799 1071.66,264.966 1078.5,264.5C 1085.76,249.459 1097.43,244.625 1113.5,250C 1114.88,251.713 1116.54,253.047 1118.5,254C 1119.55,255.388 1119.72,256.888 1119,258.5C 1113.63,263.441 1108.13,268.275 1102.5,273C 1095.32,275.318 1088.32,274.985 1081.5,272C 1078.83,271.333 1076.17,271.333 1073.5,272C 1082.8,277.896 1091.63,284.396 1100,291.5C 1111.1,288.329 1121.93,288.996 1132.5,293.5C 1145.67,287.573 1155.5,290.906 1162,303.5C 1163.01,312.803 1158.85,317.803 1149.5,318.5C 1142.11,318.774 1136.61,315.774 1133,309.5C 1132.29,306.266 1131.46,303.099 1130.5,300C 1122.88,295.573 1114.88,294.573 1106.5,297C 1119.95,309.113 1132.78,321.946 1145,335.5C 1157.22,350.722 1169.06,366.222 1180.5,382C 1188.16,382.325 1194.49,385.325 1199.5,391C 1204.5,391.333 1209.5,391.667 1214.5,392C 1216.89,393.861 1219.55,395.194 1222.5,396C 1232.86,405.907 1237.19,418.073 1235.5,432.5C 1223.52,433.315 1213.36,429.648 1205,421.5C 1204.83,422 1204.67,422.5 1204.5,423C 1246.46,505.872 1260.46,593.372 1246.5,685.5C 1237.12,746.814 1215.45,803.147 1181.5,854.5C 1177.81,856.19 1177.15,855.69 1179.5,853C 1177.86,851.049 1176.36,851.216 1175,853.5C 1174.62,852.944 1174.12,852.611 1173.5,852.5C 1219.81,781.492 1243.14,703.325 1243.5,618C 1243.5,528.834 1217.5,448 1165.5,375.5C 1164.95,380.476 1163.95,385.309 1162.5,390C 1152.02,393.68 1145.52,390.18 1143,379.5C 1142.81,375.484 1142.81,371.484 1143,367.5C 1142,366.833 1141,366.167 1140,365.5C 1136.83,355.735 1134.83,345.735 1134,335.5C 1102.08,300.687 1065.58,272.354 1024.5,250.5C 1024.16,249.662 1023.49,249.328 1022.5,249.5C 1022.17,248.167 1021.83,248.167 1021.5,249.5C 1020.83,249.5 1020.5,249.167 1020.5,248.5C 1020.5,248.167 1020.5,247.833 1020.5,247.5C 1020.94,247.565 1021.27,247.399 1021.5,247C 1020.15,246.228 1019.32,245.061 1019,243.5C 1018.01,244.939 1016.68,245.939 1015,246.5C 1013.39,246.048 1012.39,244.715 1012,242.5C 1011.67,242.833 1011.33,243.167 1011,243.5C 1010,241.833 1008.67,240.5 1007,239.5C 1006.67,239.833 1006.33,240.167 1006,240.5C 1005.73,238.899 1005.23,237.399 1004.5,236C 1005.58,234.67 1006.25,233.17 1006.5,231.5 Z M 1195.5,406.5 C 1196.29,406.783 1196.96,407.283 1197.5,408C 1196.18,408.528 1195.52,408.028 1195.5,406.5 Z M 1204.5,407.5 C 1207.25,409.126 1210.25,409.793 1213.5,409.5C 1214.29,404.696 1212.29,401.863 1207.5,401C 1206.83,400 1206.17,399 1205.5,398C 1208.05,397.34 1210.55,397.507 1213,398.5C 1223.08,404.663 1228.58,413.663 1229.5,425.5C 1216.99,425.095 1208.65,419.095 1204.5,407.5 Z M 1186.5,390.5 C 1194.54,392.895 1197.54,398.228 1195.5,406.5C 1193.2,401.924 1190.37,397.59 1187,393.5C 1186.52,392.552 1186.35,391.552 1186.5,390.5 Z M 1154.5,374.5 C 1159.13,377.586 1159.63,381.252 1156,385.5C 1152.07,384.569 1149.9,382.069 1149.5,378C 1151.44,377.98 1153.1,376.814 1154.5,374.5 Z M 1142.5,346.5 C 1147.16,351.331 1151.66,356.331 1156,361.5C 1156.54,364.209 1158.04,366.209 1160.5,367.5C 1161.33,368.451 1161.49,369.451 1161,370.5C 1159.69,369.687 1158.52,368.687 1157.5,367.5C 1150.12,367.241 1145.62,363.574 1144,356.5C 1142.96,353.243 1142.46,349.91 1142.5,346.5 Z M 1143.5,298.5 C 1145.77,297.236 1148.11,297.402 1150.5,299C 1151.67,300.833 1153.17,302.333 1155,303.5C 1156.73,309.272 1154.56,311.939 1148.5,311.5C 1143.08,311.242 1139.91,308.575 1139,303.5C 1141.85,306.318 1144.35,306.152 1146.5,303C 1146.1,301.019 1145.1,299.519 1143.5,298.5 Z M 1097.5,254.5 C 1101.72,254.078 1105.72,254.745 1109.5,256.5C 1107.32,259.926 1104.65,262.926 1101.5,265.5C 1097.8,267.903 1093.8,268.737 1089.5,268C 1092.22,266.928 1094.88,265.762 1097.5,264.5C 1098.31,262.929 1098.64,261.262 1098.5,259.5C 1089.58,259.87 1089.25,258.203 1097.5,254.5 Z"/></g>
<g><path style="opacity:0.977" fill="#454b1a" d="M 782.5,818.5 C 782.918,817.778 783.584,817.278 784.5,817C 783.833,816.667 783.167,816.333 782.5,816C 782.728,815.601 783.062,815.435 783.5,815.5C 785.288,815.785 786.955,815.452 788.5,814.5C 791.59,803.915 797.59,795.415 806.5,789C 828.833,776 851.167,763 873.5,750C 879.121,746.713 883.788,742.379 887.5,737C 878.84,736.5 870.173,736.334 861.5,736.5C 861.5,735.167 861.5,733.833 861.5,732.5C 868.222,732.71 874.888,732.21 881.5,731C 885.77,729.73 888.27,726.896 889,722.5C 889.667,717.833 889.667,713.167 889,708.5C 880.834,694.703 868.667,686.87 852.5,685C 839.868,683.124 827.868,684.957 816.5,690.5C 815.833,689.5 815.167,688.5 814.5,687.5C 837.5,677.127 859.833,678.627 881.5,692C 884.28,693.812 886.78,695.979 889,698.5C 889.667,645.833 889.667,593.167 889,540.5C 888.573,536.473 886.406,533.973 882.5,533C 875.574,531.661 868.574,531.161 861.5,531.5C 861.5,530.167 861.5,528.833 861.5,527.5C 888.833,527.5 916.167,527.5 943.5,527.5C 943.5,528.833 943.5,530.167 943.5,531.5C 936.426,531.161 929.426,531.661 922.5,533C 918.594,533.973 916.427,536.473 916,540.5C 915.333,601.5 915.333,662.5 916,723.5C 917.167,727.333 919.667,729.833 923.5,731C 930.103,732.274 936.77,732.774 943.5,732.5C 943.5,733.833 943.5,735.167 943.5,736.5C 927.833,736.5 912.167,736.5 896.5,736.5C 894.142,743.358 890.142,749.191 884.5,754C 876.083,759.292 867.583,764.459 859,769.5C 855.773,791.073 843.94,805.907 823.5,814C 810.08,819.177 796.413,820.677 782.5,818.5 Z M 847.5,775.5 C 847.461,791.11 840.127,802.276 825.5,809C 817.855,812.493 809.855,814.66 801.5,815.5C 800.167,815.167 798.833,814.833 797.5,814.5C 800.499,807.995 804.832,802.495 810.5,798C 823.23,790.977 835.563,783.477 847.5,775.5 Z"/></g>
<g><path style="opacity:0.977" fill="#444b1a" d="M 569.5,530.5 C 596.167,530.5 622.833,530.5 649.5,530.5C 649.5,531.833 649.5,533.167 649.5,534.5C 641.233,534.038 633.233,535.205 625.5,538C 624.54,539.419 623.707,540.919 623,542.5C 621.853,572.295 621.353,602.128 621.5,632C 621.353,661.872 621.853,691.705 623,721.5C 624.587,724.756 627.087,726.923 630.5,728C 636.769,729.257 643.102,729.757 649.5,729.5C 649.5,730.833 649.5,732.167 649.5,733.5C 622.833,733.5 596.167,733.5 569.5,733.5C 569.5,732.167 569.5,730.833 569.5,729.5C 577.817,730.171 585.817,729.005 593.5,726C 594.46,724.581 595.293,723.081 596,721.5C 597.151,691.713 597.651,661.88 597.5,632C 597.647,601.795 597.147,571.628 596,541.5C 594.749,538.619 592.583,536.786 589.5,536C 582.872,534.948 576.206,534.448 569.5,534.5C 569.5,533.167 569.5,531.833 569.5,530.5 Z"/></g>
<g><path style="opacity:0.879" fill="#454b1a" d="M 479.5,351.5 C 481.154,354.172 481.821,356.839 481.5,359.5C 404.059,441.237 363.726,539.07 360.5,653C 360.952,663.542 361.785,674.042 363,684.5C 373.345,728.721 389.845,770.387 412.5,809.5C 410.83,809.249 409.33,808.582 408,807.5C 406.301,808.406 404.467,808.739 402.5,808.5C 389.602,786.33 379.102,762.996 371,738.5C 371.675,746.885 373.008,755.219 375,763.5C 396.534,839.3 435.368,904.3 491.5,958.5C 490.849,959.091 490.182,959.757 489.5,960.5C 487.089,955.685 483.422,954.352 478.5,956.5C 454.713,933.209 434.046,907.542 416.5,879.5C 390.218,834.946 371.885,787.613 361.5,737.5C 357.294,708.775 353.294,679.941 349.5,651C 346.807,623.874 345.973,596.707 347,569.5C 345.244,563.953 342.744,558.787 339.5,554C 331.791,554.203 324.458,552.203 317.5,548C 311.853,541.258 309.686,533.424 311,524.5C 311.839,523.376 313.006,522.709 314.5,522.5C 323.899,523.637 332.399,526.97 340,532.5C 343.229,537.327 344.396,542.494 343.5,548C 346.222,549.272 347.556,551.439 347.5,554.5C 347.878,557.022 348.711,559.355 350,561.5C 350.617,560.551 350.451,559.718 349.5,559C 350.333,558.167 351.167,557.333 352,556.5C 353.032,558.027 354.199,559.36 355.5,560.5C 354.429,579.151 354.262,597.818 355,616.5C 364.931,521.553 400.931,438.553 463,367.5C 468.395,361.936 473.895,356.603 479.5,351.5 Z M 329.5,545.5 C 321.476,543.799 317.476,538.799 317.5,530.5C 324.191,530.784 330.024,533.117 335,537.5C 336.241,538.877 336.408,540.21 335.5,541.5C 334.019,540.52 332.685,539.353 331.5,538C 327.286,536.838 325.452,538.338 326,542.5C 327.145,543.636 328.312,544.636 329.5,545.5 Z M 368.5,734.5 C 370.465,734.948 370.798,735.948 369.5,737.5C 368.614,736.675 368.281,735.675 368.5,734.5 Z"/></g>
<g><path style="opacity:0.981" fill="#454b1b" d="M 984.5,527.5 C 1008.83,527.5 1033.17,527.5 1057.5,527.5C 1057.5,528.833 1057.5,530.167 1057.5,531.5C 1044.31,530.764 1032.64,534.598 1022.5,543C 1016.83,547.333 1011.17,551.667 1005.5,556C 984.833,575.333 964.167,594.667 943.5,614C 976.5,650.333 1009.5,686.667 1042.5,723C 1051.05,729.462 1060.72,732.629 1071.5,732.5C 1071.5,733.833 1071.5,735.167 1071.5,736.5C 1054.5,736.667 1037.5,736.5 1020.5,736C 987.277,699.947 954.611,663.447 922.5,626.5C 948.428,602.742 973.928,578.408 999,553.5C 1002.74,549.18 1005.58,544.347 1007.5,539C 1007.19,534.692 1004.86,532.359 1000.5,532C 995.177,531.501 989.844,531.334 984.5,531.5C 984.5,530.167 984.5,528.833 984.5,527.5 Z"/></g>
<g><path style="opacity:0.966" fill="#454b1b" d="M 814.5,687.5 C 815.167,688.5 815.833,689.5 816.5,690.5C 801.788,697.594 795.121,709.26 796.5,725.5C 793.634,726.795 790.801,726.795 788,725.5C 787.612,722.151 787.779,718.817 788.5,715.5C 777.554,716.141 768.221,720.308 760.5,728C 764.77,729.075 769.103,729.575 773.5,729.5C 773.5,730.833 773.5,732.167 773.5,733.5C 767.491,733.334 761.491,733.501 755.5,734C 740.577,756.146 741.077,777.979 757,799.5C 764.255,807.617 773.089,812.951 783.5,815.5C 783.062,815.435 782.728,815.601 782.5,816C 783.167,816.333 783.833,816.667 784.5,817C 783.584,817.278 782.918,817.778 782.5,818.5C 758.267,815.441 742.767,802.107 736,778.5C 732.756,762.461 735.589,747.628 744.5,734C 737.5,733.667 730.5,733.333 723.5,733C 692.154,697.655 660.82,662.322 629.5,627C 647.467,609.369 665.8,592.036 684.5,575C 693.402,566.768 701.569,557.934 709,548.5C 712.206,544.337 712.039,540.503 708.5,537C 702.346,535 696.013,534.167 689.5,534.5C 689.5,533.167 689.5,531.833 689.5,530.5C 712.833,530.5 736.167,530.5 759.5,530.5C 759.5,531.833 759.5,533.167 759.5,534.5C 753.385,534.54 747.385,535.374 741.5,537C 732.658,541.585 724.325,546.918 716.5,553C 694.167,573.333 671.833,593.667 649.5,614C 681.428,650.598 714.094,686.598 747.5,722C 749.01,722.85 750.51,723.683 752,724.5C 758.658,719.754 765.824,715.921 773.5,713C 748.981,704.638 735.981,687.471 734.5,661.5C 736.343,632.498 751.343,614.664 779.5,608C 806.018,603.953 828.852,611.12 848,629.5C 854.568,638.037 858.068,647.704 858.5,658.5C 854.833,658.5 851.167,658.5 847.5,658.5C 849.895,637.7 841.229,623.533 821.5,616C 804.449,608.825 787.449,608.825 770.5,616C 747.64,631.558 740.14,652.725 748,679.5C 755.429,697.754 768.929,708.42 788.5,711.5C 791.873,705.959 795.873,700.793 800.5,696C 804.723,692.391 809.39,689.557 814.5,687.5 Z"/></g>
<g><path style="opacity:0.888" fill="#454a1b" d="M 999.5,948.5 C 999.81,949.738 1000.31,949.738 1001,948.5C 1001.98,950.74 1002.48,953.073 1002.5,955.5C 932.901,1000.41 856.401,1023.08 773,1023.5C 746.608,1023.23 720.442,1021.06 694.5,1017C 764.52,1040.73 835.853,1045.23 908.5,1030.5C 910.293,1032.43 911.293,1034.76 911.5,1037.5C 824.905,1054.79 740.905,1046.62 659.5,1013C 641.463,1003.65 622.796,995.655 603.5,989C 525.595,954.395 463.095,901.895 416,831.5C 411.458,823.733 406.958,816.067 402.5,808.5C 404.467,808.739 406.301,808.406 408,807.5C 409.33,808.582 410.83,809.249 412.5,809.5C 414.117,813.391 416.45,816.724 419.5,819.5C 419.092,816.802 417.926,814.469 416,812.5C 414.331,804.136 412.165,795.97 409.5,788C 409.412,785.256 410.745,784.09 413.5,784.5C 416.865,785.901 420.199,787.401 423.5,789C 429.539,792.923 435.039,797.423 440,802.5C 440.167,802.167 440.333,801.833 440.5,801.5C 434.442,787.658 428.775,773.658 423.5,759.5C 413.615,753.386 406.282,745.052 401.5,734.5C 385.415,730.476 378.415,720.309 380.5,704C 384.569,698.563 389.902,697.063 396.5,699.5C 397.912,700.806 399.579,701.64 401.5,702C 405.095,705.535 407.595,709.702 409,714.5C 409.378,721.189 409.378,727.856 409,734.5C 411.95,739.118 415.284,743.452 419,747.5C 416.18,736.76 413.346,725.927 410.5,715C 408.677,705.894 407.343,696.727 406.5,687.5C 408.972,686.384 411.306,685.384 413.5,684.5C 413.781,688.188 414.281,691.855 415,695.5C 420.566,687.73 420.9,679.73 416,671.5C 414.13,653.563 421.63,641.563 438.5,635.5C 440.112,636.549 441.112,638.049 441.5,640C 440.604,645.966 440.604,651.966 441.5,658C 442.156,670.527 436.99,679.694 426,685.5C 423.902,693.026 420.735,700.026 416.5,706.5C 420.04,721.994 424.207,737.327 429,752.5C 434.203,765.938 439.703,779.272 445.5,792.5C 447.4,786.634 447.9,780.634 447,774.5C 435.497,768.426 431.164,759.092 434,746.5C 440.133,737.242 447.467,736.242 456,743.5C 459.281,749.79 460.281,756.457 459,763.5C 458.251,766.757 456.584,769.424 454,771.5C 454.106,781.67 452.94,791.67 450.5,801.5C 459.752,822.406 471.085,842.073 484.5,860.5C 485.833,856.167 485.833,851.833 484.5,847.5C 481.385,842.327 478.552,836.994 476,831.5C 472.902,813.339 479.235,799.672 495,790.5C 496.465,789.67 497.965,789.504 499.5,790C 508.808,804.669 510.642,820.169 505,836.5C 501.304,840.858 496.97,844.525 492,847.5C 492.475,854.688 492.308,861.855 491.5,869C 491.862,870.225 492.362,871.391 493,872.5C 532.356,923.847 580.856,964.347 638.5,994C 750.72,1030.16 859.387,1021.83 964.5,969C 976.595,962.629 988.262,955.796 999.5,948.5 Z M 388.5,704.5 C 399.27,706.781 404.104,713.447 403,724.5C 402.019,720.874 399.853,718.207 396.5,716.5C 391.627,718.457 391.294,720.957 395.5,724C 393.613,724.163 392.113,723.329 391,721.5C 388.699,718.212 386.866,714.712 385.5,711C 385.884,708.479 386.884,706.312 388.5,704.5 Z M 433.5,645.5 C 436.08,653.44 435.914,661.44 433,669.5C 431.661,672.377 429.827,674.044 427.5,674.5C 428.8,670.247 430.466,666.247 432.5,662.5C 431.573,658.364 429.573,657.698 426.5,660.5C 425.253,662.323 424.586,664.323 424.5,666.5C 423.5,666.5 422.5,666.5 421.5,666.5C 422.188,657.508 426.188,650.508 433.5,645.5 Z M 444.5,763.5 C 439.418,759.14 438.251,753.807 441,747.5C 444,744.833 447,744.833 450,747.5C 453.6,752.104 454.267,757.104 452,762.5C 451.764,760.236 451.264,758.069 450.5,756C 448.741,755.202 447.074,755.369 445.5,756.5C 444.626,758.747 444.292,761.08 444.5,763.5 Z M 440.5,817.5 C 435.557,817.884 434.557,820.051 437.5,824C 437,824.167 436.5,824.333 436,824.5C 429.824,821.321 425.324,816.488 422.5,810C 420.808,804.862 419.641,799.695 419,794.5C 425.292,799.123 431.292,804.123 437,809.5C 438.993,811.818 440.159,814.484 440.5,817.5 Z M 495.5,798.5 C 496.497,798.47 497.164,798.97 497.5,800C 500.01,806.695 502.01,813.528 503.5,820.5C 502.249,828.062 498.583,834.062 492.5,838.5C 492.167,837.333 491.833,836.167 491.5,835C 492.549,829.539 493.216,824.039 493.5,818.5C 491.5,818.5 489.5,818.5 487.5,818.5C 486.605,823.812 485.771,829.145 485,834.5C 479.967,824.818 480.633,815.484 487,806.5C 489.579,803.479 492.413,800.812 495.5,798.5 Z M 419.5,819.5 C 422.494,823.326 425.994,826.659 430,829.5C 435.254,831.752 440.754,832.919 446.5,833C 450.72,836.907 455.72,838.74 461.5,838.5C 461.351,839.552 461.517,840.552 462,841.5C 492.155,891.144 530.655,932.811 577.5,966.5C 571.776,964.804 566.443,962.304 561.5,959C 508.988,927.32 464.988,886.487 429.5,836.5C 426.581,831.66 423.414,826.994 420,822.5C 419.517,821.552 419.351,820.552 419.5,819.5 Z M 450.5,821.5 C 451.521,824.36 453.188,826.86 455.5,829C 455.167,829.5 454.833,830 454.5,830.5C 450.993,828.539 449.66,825.539 450.5,821.5 Z M 579.5,967.5 C 581.363,967.846 582.196,968.846 582,970.5C 580.583,969.922 579.75,968.922 579.5,967.5 Z"/></g>
<g><path style="opacity:0.855" fill="#454b1b" d="M 1197.5,565.5 C 1199.17,584.221 1201.34,602.887 1204,621.5C 1208.04,677.372 1201.54,731.705 1184.5,784.5C 1183.5,784.414 1182.67,784.748 1182,785.5C 1181.52,784.552 1181.35,783.552 1181.5,782.5C 1179.78,782.629 1178.12,782.962 1176.5,783.5C 1193.13,733.574 1199.96,682.241 1197,629.5C 1193.68,660.203 1188.02,690.536 1180,720.5C 1170.41,749.115 1158.57,776.781 1144.5,803.5C 1145.78,814.427 1148.12,825.094 1151.5,835.5C 1150.72,839.159 1150.06,842.825 1149.5,846.5C 1146.9,846.379 1144.9,845.379 1143.5,843.5C 1144.46,839.204 1144.63,834.871 1144,830.5C 1143.7,833.295 1142.2,834.961 1139.5,835.5C 1137.53,834.9 1136.53,833.567 1136.5,831.5C 1137.25,830.469 1137.92,829.302 1138.5,828C 1137.83,827.667 1137.17,827.333 1136.5,827C 1137.41,825.1 1137.41,822.934 1136.5,820.5C 1136.5,820.167 1136.5,819.833 1136.5,819.5C 1135.83,819.5 1135.17,819.5 1134.5,819.5C 1132.92,821.529 1131.58,823.862 1130.5,826.5C 1128.92,827.298 1127.26,827.798 1125.5,828C 1130.03,828.903 1130.7,831.07 1127.5,834.5C 1126.28,833.289 1125.11,833.289 1124,834.5C 1122.26,833.242 1120.43,832.242 1118.5,831.5C 1130.75,812.571 1141.75,792.904 1151.5,772.5C 1151.17,772.167 1150.83,771.833 1150.5,771.5C 1147.3,773.928 1143.97,776.095 1140.5,778C 1128.51,803.762 1109.84,810.262 1084.5,797.5C 1083.52,795.902 1083.35,794.235 1084,792.5C 1089.48,783.35 1096.65,775.85 1105.5,770C 1114.16,766.739 1122.83,766.739 1131.5,770C 1133.52,770.674 1135.18,771.841 1136.5,773.5C 1142.08,768.114 1148.58,764.114 1156,761.5C 1161.95,746.6 1167.62,731.6 1173,716.5C 1187.13,667.539 1192.3,617.539 1188.5,566.5C 1189.22,566.217 1190.05,565.884 1191,565.5C 1191.49,566.549 1191.33,567.549 1190.5,568.5C 1191,568.833 1191.5,569.167 1192,569.5C 1194.03,568.48 1195.36,566.813 1196,564.5C 1196.38,565.056 1196.88,565.389 1197.5,565.5 Z M 1112.5,774.5 C 1118.73,773.939 1124.73,774.772 1130.5,777C 1123.99,779.835 1117.49,782.668 1111,785.5C 1110.73,788.487 1112.23,789.821 1115.5,789.5C 1119.52,788.326 1123.52,787.492 1127.5,787C 1121.78,793.607 1114.62,797.44 1106,798.5C 1101.05,797.039 1096.21,795.206 1091.5,793C 1095.38,787.545 1099.71,782.545 1104.5,778C 1107.37,777.058 1110.04,775.891 1112.5,774.5 Z M 1136.5,819.5 C 1137.13,816.91 1138.3,814.577 1140,812.5C 1140.01,814.471 1139.68,816.471 1139,818.5C 1138.33,819.252 1137.5,819.586 1136.5,819.5 Z M 1134.5,819.5 C 1135.17,819.5 1135.83,819.5 1136.5,819.5C 1136.5,819.833 1136.5,820.167 1136.5,820.5C 1135.83,820.833 1135.17,821.167 1134.5,821.5C 1134.5,820.833 1134.5,820.167 1134.5,819.5 Z"/></g>
<g><path style="opacity:0.846" fill="#454b1b" d="M 1134.5,819.5 C 1134.5,820.167 1134.5,820.833 1134.5,821.5C 1135.17,821.167 1135.83,820.833 1136.5,820.5C 1137.41,822.934 1137.41,825.1 1136.5,827C 1137.17,827.333 1137.83,827.667 1138.5,828C 1137.92,829.302 1137.25,830.469 1136.5,831.5C 1135.62,831.369 1134.96,831.702 1134.5,832.5C 1129.02,841.727 1126.52,851.727 1127,862.5C 1130.55,859.698 1133.89,856.698 1137,853.5C 1138.94,849.931 1141.11,846.598 1143.5,843.5C 1144.9,845.379 1146.9,846.379 1149.5,846.5C 1146.97,851.555 1143.8,856.222 1140,860.5C 1135.5,865 1131,869.5 1126.5,874C 1124.3,874.825 1122.47,874.325 1121,872.5C 1119.91,860.546 1120.91,848.88 1124,837.5C 1118.33,845.5 1112.67,853.5 1107,861.5C 1102.68,866.596 1098.18,871.596 1093.5,876.5C 1093.66,888.177 1090.33,898.677 1083.5,908C 1087.28,920.365 1084.28,930.699 1074.5,939C 1068.66,941.579 1063.49,940.745 1059,936.5C 1057.98,933.401 1056.81,930.401 1055.5,927.5C 1056.87,922.337 1058.71,917.337 1061,912.5C 1065.9,907.3 1071.9,903.967 1079,902.5C 1082.82,897.863 1084.99,892.53 1085.5,886.5C 1060.69,913.052 1033.03,936.052 1002.5,955.5C 1002.48,953.073 1001.98,950.74 1001,948.5C 1000.31,949.738 999.81,949.738 999.5,948.5C 1014.47,938.722 1028.8,927.889 1042.5,916C 1038.79,915.561 1035.12,915.894 1031.5,917C 1027.67,919.993 1024.34,923.493 1021.5,927.5C 1008.03,936.681 994.7,936.348 981.5,926.5C 979.895,923.42 980.562,920.92 983.5,919C 989.407,916.097 995.073,912.764 1000.5,909C 1004.67,907.26 1009.01,906.094 1013.5,905.5C 1019.43,906.385 1025.1,908.052 1030.5,910.5C 1037.53,909.074 1044.53,908.574 1051.5,909C 1073.7,887.957 1094.04,865.124 1112.5,840.5C 1107.67,841.391 1102.83,843.058 1098,845.5C 1095.61,849.807 1094.28,854.474 1094,859.5C 1092.41,861.67 1091.08,864.004 1090,866.5C 1082.52,874.546 1074.52,875.213 1066,868.5C 1062.38,857.582 1065.55,849.415 1075.5,844C 1080.48,842.496 1085.48,842.163 1090.5,843C 1098.91,836.919 1108.24,833.086 1118.5,831.5C 1120.43,832.242 1122.26,833.242 1124,834.5C 1125.11,833.289 1126.28,833.289 1127.5,834.5C 1130.7,831.07 1130.03,828.903 1125.5,828C 1127.26,827.798 1128.92,827.298 1130.5,826.5C 1131.58,823.862 1132.92,821.529 1134.5,819.5 Z M 1079.5,849.5 C 1083.14,850.268 1082.81,850.934 1078.5,851.5C 1076.62,857.082 1078.62,858.916 1084.5,857C 1085.93,856.535 1087.1,855.701 1088,854.5C 1086.76,860.911 1082.92,864.911 1076.5,866.5C 1070.96,865.09 1069.46,861.756 1072,856.5C 1073.74,853.254 1076.24,850.921 1079.5,849.5 Z M 1085.5,886.5 C 1085.78,885.711 1086.28,885.044 1087,884.5C 1087.53,885.816 1087.03,886.483 1085.5,886.5 Z M 1007.5,912.5 C 1011.7,912.076 1015.7,912.576 1019.5,914C 1014.72,916.032 1009.72,916.866 1004.5,916.5C 1004.5,918.5 1004.5,920.5 1004.5,922.5C 1008.18,922.335 1011.85,922.501 1015.5,923C 1007.7,928.813 999.7,928.979 991.5,923.5C 996.539,919.321 1001.87,915.655 1007.5,912.5 Z M 1072.5,912.5 C 1071.67,915.469 1071.5,918.469 1072,921.5C 1075.39,923.318 1077.39,922.318 1078,918.5C 1078.19,921.947 1077.53,925.28 1076,928.5C 1073.32,930.57 1070.66,932.57 1068,934.5C 1066.11,934.223 1064.78,933.223 1064,931.5C 1062.13,922.893 1064.97,916.56 1072.5,912.5 Z"/></g>
<g><path style="opacity:0.208" fill="#889881" d="M 940.5,896.5 C 942.337,896.639 942.67,897.306 941.5,898.5C 940.702,898.043 940.369,897.376 940.5,896.5 Z"/></g>
<g><path style="opacity:0.89" fill="#454a1b" d="M 1184.5,784.5 C 1167.87,838.603 1141.2,887.103 1104.5,930C 1105.17,930.667 1105.83,930.667 1106.5,930C 1131.9,906.679 1154.23,880.846 1173.5,852.5C 1174.12,852.611 1174.62,852.944 1175,853.5C 1176.36,851.216 1177.86,851.049 1179.5,853C 1177.15,855.69 1177.81,856.19 1181.5,854.5C 1149.87,902.634 1109.87,942.801 1061.5,975C 1032.88,999.741 1001.71,1020.91 968,1038.5C 964.353,1042.45 961.187,1046.78 958.5,1051.5C 967.287,1064.56 966.287,1076.73 955.5,1088C 951.823,1090.31 947.989,1090.81 944,1089.5C 942.998,1082.48 941.498,1075.65 939.5,1069C 940.48,1063.08 942.814,1057.75 946.5,1053C 951.127,1051.58 953.46,1048.75 953.5,1044.5C 944.168,1048.5 934.835,1052.5 925.5,1056.5C 923.408,1068.4 917.241,1077.4 907,1083.5C 906.006,1098.91 897.839,1105.75 882.5,1104C 877.311,1102.47 874.977,1098.97 875.5,1093.5C 875.458,1085.04 879.458,1079.54 887.5,1077C 892.506,1076.15 897.339,1076.65 902,1078.5C 909.516,1074.49 914.682,1068.49 917.5,1060.5C 917.167,1059.83 916.833,1059.17 916.5,1058.5C 906.9,1062.25 897.233,1065.59 887.5,1068.5C 887.586,1067.5 887.252,1066.67 886.5,1066C 887.676,1064.33 889.01,1062.83 890.5,1061.5C 888.955,1060.55 887.288,1060.21 885.5,1060.5C 925.394,1049.39 963.06,1033.06 998.5,1011.5C 998,1011.17 997.5,1010.83 997,1010.5C 969.575,1022.98 941.075,1031.98 911.5,1037.5C 911.293,1034.76 910.293,1032.43 908.5,1030.5C 957.72,1020.26 1003.72,1002.1 1046.5,976C 1108.52,924.897 1151.85,860.731 1176.5,783.5C 1178.12,782.962 1179.78,782.629 1181.5,782.5C 1181.35,783.552 1181.52,784.552 1182,785.5C 1182.67,784.748 1183.5,784.414 1184.5,784.5 Z M 949.5,1059.5 C 950.276,1062.67 950.443,1066.01 950,1069.5C 955.544,1071.64 957.877,1069.64 957,1063.5C 959.392,1071.61 957.059,1077.94 950,1082.5C 945.818,1074.82 945.652,1067.15 949.5,1059.5 Z M 898.5,1090.5 C 895.32,1095.89 890.654,1098.22 884.5,1097.5C 882.896,1096.4 881.896,1094.9 881.5,1093C 882.515,1089.29 884.515,1086.29 887.5,1084C 889.833,1083.33 892.167,1083.33 894.5,1084C 892.878,1085.3 891.545,1086.8 890.5,1088.5C 890.529,1090.03 891.196,1091.2 892.5,1092C 894.689,1092.32 896.689,1091.82 898.5,1090.5 Z"/></g>
<g><path style="opacity:0.897" fill="#454a1a" d="M 491.5,958.5 C 566.502,1028.26 655.502,1066.76 758.5,1074C 764.667,1074.17 770.833,1074.33 777,1074.5C 792.84,1073.53 809.007,1072.36 825.5,1071C 818.764,1071.55 813.597,1069.05 810,1063.5C 808.064,1056.87 810.23,1052.37 816.5,1050C 823.727,1048.28 830.06,1049.78 835.5,1054.5C 847.756,1054.38 858.923,1057.71 869,1064.5C 874.546,1063.36 880.046,1062.02 885.5,1060.5C 887.288,1060.21 888.955,1060.55 890.5,1061.5C 889.01,1062.83 887.676,1064.33 886.5,1066C 887.252,1066.67 887.586,1067.5 887.5,1068.5C 861.075,1074.3 834.409,1078.47 807.5,1081C 802.572,1087.96 795.905,1092.13 787.5,1093.5C 785.618,1101.89 780.618,1107.72 772.5,1111C 760.202,1113.01 748.535,1111.34 737.5,1106C 736.186,1103.04 736.52,1100.21 738.5,1097.5C 742.851,1092.95 747.518,1088.78 752.5,1085C 754.087,1084.14 755.754,1083.47 757.5,1083C 764.833,1082.33 772.167,1082.33 779.5,1083C 782.47,1083.76 784.97,1085.26 787,1087.5C 790.39,1085.55 793.89,1083.72 797.5,1082C 691.356,1084.52 596.69,1053.52 513.5,989C 501.666,978.679 489.999,967.845 478.5,956.5C 483.422,954.352 487.089,955.685 489.5,960.5C 490.182,959.757 490.849,959.091 491.5,958.5 Z M 839.5,1061.5 C 845.905,1061.55 851.905,1063.05 857.5,1066C 847.68,1068.81 837.68,1070.14 827.5,1070C 831.106,1068.73 833.773,1066.39 835.5,1063C 837.058,1062.79 838.391,1062.29 839.5,1061.5 Z M 819.5,1055.5 C 822.271,1055.42 824.937,1055.92 827.5,1057C 824.106,1058.57 823.772,1060.57 826.5,1063C 821.549,1065.36 817.883,1064.03 815.5,1059C 816.731,1057.6 818.064,1056.43 819.5,1055.5 Z M 761.5,1088.5 C 765.846,1088.33 770.179,1088.5 774.5,1089C 768.877,1089.79 766.543,1092.95 767.5,1098.5C 771.453,1097.26 775.453,1095.93 779.5,1094.5C 779.833,1094.67 780.167,1094.83 780.5,1095C 779.809,1096.07 779.309,1097.23 779,1098.5C 770.731,1105.76 761.231,1107.92 750.5,1105C 748.525,1104.02 746.858,1102.69 745.5,1101C 747.397,1099.22 749.063,1097.22 750.5,1095C 753.841,1092.13 757.507,1089.97 761.5,1088.5 Z"/></g>
<g><path style="opacity:0.947" fill="#454a1b" d="M 496.5,1226.5 C 501.65,1225.35 506.984,1225.18 512.5,1226C 510.683,1227.8 509.516,1229.97 509,1232.5C 508.333,1241.5 508.333,1250.5 509,1259.5C 519.03,1249.8 528.697,1239.8 538,1229.5C 538.684,1228.22 538.517,1227.05 537.5,1226C 543.167,1225.33 548.833,1225.33 554.5,1226C 540.318,1234.84 527.985,1245.84 517.5,1259C 525.446,1267.72 533.28,1276.55 541,1285.5C 544.912,1290.08 549.412,1293.92 554.5,1297C 549.5,1297.67 544.5,1297.67 539.5,1297C 529.333,1285.5 519.167,1274 509,1262.5C 508.125,1273.22 508.459,1283.88 510,1294.5C 510.833,1295.33 511.667,1296.17 512.5,1297C 507.167,1297.67 501.833,1297.67 496.5,1297C 498.487,1295.68 499.654,1293.85 500,1291.5C 500.667,1271.5 500.667,1251.5 500,1231.5C 499.777,1229.12 498.61,1227.45 496.5,1226.5 Z"/></g>
<g><path style="opacity:0.969" fill="#454b1a" d="M 565.5,1297.5 C 567.27,1295.89 568.436,1293.89 569,1291.5C 569.667,1271.5 569.667,1251.5 569,1231.5C 568.654,1229.15 567.487,1227.32 565.5,1226C 571.167,1225.33 576.833,1225.33 582.5,1226C 579.617,1227.59 578.117,1230.09 578,1233.5C 577.333,1252.17 577.333,1270.83 578,1289.5C 578.117,1292.91 579.617,1295.41 582.5,1297C 576.843,1297.5 571.176,1297.67 565.5,1297.5 Z"/></g>
<g><path style="opacity:0.938" fill="#454b1a" d="M 594.5,1226.5 C 598.981,1225.35 603.648,1225.18 608.5,1226C 624,1244.17 639.5,1262.33 655,1280.5C 655.667,1264.17 655.667,1247.83 655,1231.5C 654.602,1228.77 653.102,1226.93 650.5,1226C 655.5,1225.33 660.5,1225.33 665.5,1226C 663.513,1227.32 662.346,1229.15 662,1231.5C 661.833,1254.51 661.333,1277.51 660.5,1300.5C 643.52,1280.35 626.354,1260.35 609,1240.5C 608.333,1257.83 608.333,1275.17 609,1292.5C 609.833,1294.67 611.333,1296.17 613.5,1297C 608.167,1297.67 602.833,1297.67 597.5,1297C 600.102,1296.07 601.602,1294.23 602,1291.5C 602.667,1272.5 602.667,1253.5 602,1234.5C 601.002,1230.42 598.502,1227.75 594.5,1226.5 Z"/></g>
<g><path style="opacity:0.929" fill="#454b1b" d="M 801.5,1224.5 C 819.075,1222.23 825.908,1229.57 822,1246.5C 817.807,1251.36 812.974,1255.52 807.5,1259C 812.801,1265.3 818.468,1271.3 824.5,1277C 825.449,1277.62 826.282,1277.45 827,1276.5C 830.588,1271.32 833.088,1265.66 834.5,1259.5C 834.02,1257.05 833.02,1254.88 831.5,1253C 836.5,1252.33 841.5,1252.33 846.5,1253C 841.351,1262.96 835.685,1272.63 829.5,1282C 833.827,1285.5 838.494,1288.5 843.5,1291C 853.041,1289.23 854.041,1291.57 846.5,1298C 843.537,1299.85 840.537,1299.85 837.5,1298C 832.731,1295.54 828.231,1292.7 824,1289.5C 818.104,1295.42 810.937,1298.75 802.5,1299.5C 786.765,1297.6 780.598,1288.94 784,1273.5C 787.167,1267.67 791.667,1263.17 797.5,1260C 791.585,1253.25 789.085,1245.42 790,1236.5C 792.019,1230.65 795.852,1226.65 801.5,1224.5 Z M 802.5,1228.5 C 815.434,1229.15 819.268,1235.48 814,1247.5C 811.297,1250.54 808.297,1253.2 805,1255.5C 800.952,1250.24 798.119,1244.41 796.5,1238C 797.136,1233.88 799.136,1230.71 802.5,1228.5 Z M 798.5,1264.5 C 799.552,1264.35 800.552,1264.52 801.5,1265C 807.216,1271.59 813.05,1278.09 819,1284.5C 818.394,1287.46 816.561,1289.63 813.5,1291C 802.983,1295.16 795.483,1292 791,1281.5C 790.262,1277.6 790.928,1273.93 793,1270.5C 795.04,1268.63 796.873,1266.63 798.5,1264.5 Z"/></g>
<g><path style="opacity:0.948" fill="#454b1a" d="M 888.5,1226.5 C 893.65,1225.35 898.984,1225.18 904.5,1226C 902.683,1227.8 901.516,1229.97 901,1232.5C 900.333,1241.5 900.333,1250.5 901,1259.5C 911.03,1249.8 920.697,1239.8 930,1229.5C 930.684,1228.22 930.517,1227.05 929.5,1226C 935.167,1225.33 940.833,1225.33 946.5,1226C 932.292,1234.87 919.959,1245.87 909.5,1259C 917.446,1267.72 925.28,1276.55 933,1285.5C 936.912,1290.08 941.412,1293.92 946.5,1297C 941.5,1297.67 936.5,1297.67 931.5,1297C 921.333,1285.5 911.167,1274 901,1262.5C 900.125,1273.22 900.459,1283.88 902,1294.5C 902.833,1295.33 903.667,1296.17 904.5,1297C 899.167,1297.67 893.833,1297.67 888.5,1297C 890.487,1295.68 891.654,1293.85 892,1291.5C 892.667,1271.5 892.667,1251.5 892,1231.5C 891.777,1229.12 890.61,1227.45 888.5,1226.5 Z"/></g>
<g><path style="opacity:0.96" fill="#444b1b" d="M 957.5,1297.5 C 959.27,1295.89 960.436,1293.89 961,1291.5C 961.667,1271.5 961.667,1251.5 961,1231.5C 960.654,1229.15 959.487,1227.32 957.5,1226C 963.167,1225.33 968.833,1225.33 974.5,1226C 971.617,1227.59 970.117,1230.09 970,1233.5C 969.333,1252.17 969.333,1270.83 970,1289.5C 970.117,1292.91 971.617,1295.41 974.5,1297C 968.843,1297.5 963.176,1297.67 957.5,1297.5 Z"/></g>
<g><path style="opacity:0.946" fill="#454b1b" d="M 989.5,1226.5 C 994.348,1225.19 999.348,1225.19 1004.5,1226.5C 1012.94,1245.05 1021.11,1263.72 1029,1282.5C 1036.89,1263.72 1045.06,1245.05 1053.5,1226.5C 1058.13,1225.34 1062.8,1225.17 1067.5,1226C 1064.91,1227.34 1063.41,1229.51 1063,1232.5C 1062.33,1251.83 1062.33,1271.17 1063,1290.5C 1062.94,1293.77 1064.44,1295.93 1067.5,1297C 1061.83,1297.67 1056.17,1297.67 1050.5,1297C 1052.49,1295.68 1053.65,1293.85 1054,1291.5C 1054.67,1274.17 1054.67,1256.83 1054,1239.5C 1045.33,1259.5 1036.67,1279.5 1028,1299.5C 1018.47,1279.77 1009.47,1259.77 1001,1239.5C 1000.33,1257.17 1000.33,1274.83 1001,1292.5C 1001.83,1294.67 1003.33,1296.17 1005.5,1297C 1000.17,1297.67 994.833,1297.67 989.5,1297C 992.094,1295.66 993.594,1293.49 994,1290.5C 994.667,1270.83 994.667,1251.17 994,1231.5C 993.004,1229.34 991.504,1227.67 989.5,1226.5 Z"/></g>
<g><path style="opacity:0.949" fill="#454b1b" d="M 708.5,1224.5 C 719.496,1223.64 730.163,1224.97 740.5,1228.5C 740.666,1232.85 740.499,1237.18 740,1241.5C 728.353,1228.17 714.853,1226 699.5,1235C 688.553,1245.74 685.386,1258.58 690,1273.5C 694.917,1286.3 704.25,1292.96 718,1293.5C 722.929,1292.89 727.762,1291.89 732.5,1290.5C 732.666,1283.49 732.5,1276.49 732,1269.5C 731.215,1267.71 730.049,1266.21 728.5,1265C 734.167,1264.33 739.833,1264.33 745.5,1265C 743.951,1266.21 742.785,1267.71 742,1269.5C 741.831,1277.19 741.331,1284.85 740.5,1292.5C 724.329,1301.91 708.329,1301.75 692.5,1292C 679.247,1279.69 675.414,1264.86 681,1247.5C 686.436,1235.22 695.603,1227.55 708.5,1224.5 Z"/></g>
<g><path style="opacity:0.004" fill="#fe0000" d="M 565.5,1297.5 C 564.833,1298.17 564.833,1298.17 565.5,1297.5 Z"/></g>
<g><path style="opacity:0.008" fill="#7f8000" d="M 957.5,1297.5 C 956.833,1298.17 956.833,1298.17 957.5,1297.5 Z"/></g>
<g><path style="opacity:0.89" fill="#444a1a" d="M 660.5,1358.5 C 662.319,1371.46 663.152,1384.8 663,1398.5C 663.465,1399.93 664.299,1401.1 665.5,1402C 662.167,1402.67 658.833,1402.67 655.5,1402C 656,1401.5 656.5,1401 657,1400.5C 657.5,1388.5 657.667,1376.5 657.5,1364.5C 655.712,1364.79 654.045,1364.45 652.5,1363.5C 654.97,1361.46 657.637,1359.8 660.5,1358.5 Z"/></g>
<g><path style="opacity:0.847" fill="#464a1b" d="M 891.5,1358.5 C 907.025,1358.52 911.858,1365.85 906,1380.5C 901.544,1386.62 896.711,1392.46 891.5,1398C 896.167,1398.67 900.833,1398.67 905.5,1398C 907.081,1397.29 908.581,1396.46 910,1395.5C 910.334,1397.85 910.167,1400.18 909.5,1402.5C 900.827,1402.67 892.16,1402.5 883.5,1402C 890.435,1394.4 896.602,1386.23 902,1377.5C 902.667,1374.17 902.667,1370.83 902,1367.5C 901.535,1366.07 900.701,1364.9 899.5,1364C 892.182,1362.14 887.849,1364.97 886.5,1372.5C 884.251,1366.35 885.918,1361.68 891.5,1358.5 Z"/></g>
<g><path style="opacity:0.868" fill="#464b1b" d="M 814.5,1358.5 C 830.025,1358.52 834.858,1365.85 829,1380.5C 824.544,1386.62 819.711,1392.46 814.5,1398C 819.167,1398.67 823.833,1398.67 828.5,1398C 830.081,1397.29 831.581,1396.46 833,1395.5C 833.334,1397.85 833.167,1400.18 832.5,1402.5C 823.827,1402.67 815.16,1402.5 806.5,1402C 813.435,1394.4 819.602,1386.23 825,1377.5C 825.667,1374.17 825.667,1370.83 825,1367.5C 824.535,1366.07 823.701,1364.9 822.5,1364C 815.182,1362.14 810.849,1364.97 809.5,1372.5C 807.251,1366.35 808.918,1361.68 814.5,1358.5 Z"/></g>
<g><path style="opacity:0.897" fill="#444b1b" d="M 713.5,1358.5 C 722.465,1357.62 727.965,1361.62 730,1370.5C 730.856,1378.23 730.523,1385.9 729,1393.5C 724.204,1404.72 717.204,1406.39 708,1398.5C 704.162,1388.76 703.495,1378.76 706,1368.5C 707.317,1364.16 709.817,1360.83 713.5,1358.5 Z M 715.5,1361.5 C 719.192,1361.94 721.692,1363.94 723,1367.5C 726.287,1377.18 726.287,1386.84 723,1396.5C 718.427,1401.99 714.76,1401.32 712,1394.5C 708.713,1384.82 708.713,1375.16 712,1365.5C 713.376,1364.29 714.542,1362.96 715.5,1361.5 Z"/></g>
<g><path style="opacity:0.858" fill="#454b1b" d="M 854.5,1358.5 C 863.918,1357.74 869.418,1362.08 871,1371.5C 872.608,1381.32 871.275,1390.65 867,1399.5C 856.033,1406.53 849.033,1403.53 846,1390.5C 844.392,1380.68 845.725,1371.35 850,1362.5C 851.667,1361.27 853.167,1359.93 854.5,1358.5 Z M 856.5,1361.5 C 860.192,1361.94 862.692,1363.94 864,1367.5C 867.287,1377.18 867.287,1386.84 864,1396.5C 859.427,1401.99 855.76,1401.32 853,1394.5C 849.713,1384.82 849.713,1375.16 853,1365.5C 854.376,1364.29 855.542,1362.96 856.5,1361.5 Z"/></g>
<g><path style="opacity:0.894" fill="#454b1b" d="M 944.5,1357.5 C 945.291,1359.31 945.291,1361.31 944.5,1363.5C 939.821,1363.33 935.155,1363.5 930.5,1364C 929.287,1366.69 928.62,1369.52 928.5,1372.5C 943.844,1373.66 948.677,1381.33 943,1395.5C 937.777,1401.52 931.277,1403.85 923.5,1402.5C 923.167,1401.83 922.833,1401.17 922.5,1400.5C 929.006,1400.39 934.506,1398.06 939,1393.5C 941.833,1387.6 940.667,1382.77 935.5,1379C 931.605,1377.73 927.605,1377.23 923.5,1377.5C 924.675,1371.13 926.008,1364.8 927.5,1358.5C 933.358,1358.82 939.025,1358.49 944.5,1357.5 Z"/></g>
<g><path style="opacity:0.902" fill="#464b1a" d="M 764.5,1358.5 C 766.429,1358.23 768.095,1358.73 769.5,1360C 754.01,1367.8 748.51,1379.97 753,1396.5C 755.796,1400.91 759.296,1401.57 763.5,1398.5C 766.958,1394.27 767.125,1389.94 764,1385.5C 760.064,1382.69 756.397,1383.02 753,1386.5C 752.797,1383.34 754.297,1381.17 757.5,1380C 768.435,1378.66 772.935,1383.49 771,1394.5C 768.118,1402.19 762.618,1405.03 754.5,1403C 749.948,1401.41 747.115,1398.25 746,1393.5C 743.806,1377.21 749.973,1365.55 764.5,1358.5 Z"/></g>
<g><path style="opacity:0.826" fill="#444c1a" d="M 683.5,1396.5 C 689.016,1396.47 690.349,1398.64 687.5,1403C 681.738,1403.42 680.404,1401.25 683.5,1396.5 Z"/></g>
<g><path style="opacity:0.893" fill="#464c1b" d="M 787.5,1396.5 C 793.016,1396.47 794.349,1398.64 791.5,1403C 785.738,1403.42 784.404,1401.25 787.5,1396.5 Z"/></g>
<g><path style="opacity:0.952" fill="#454b1b" d="M 621.5,1358.5 C 631.35,1356.9 637.016,1360.9 638.5,1370.5C 635.576,1381.28 629.91,1390.45 621.5,1398C 626.167,1398.67 630.833,1398.67 635.5,1398C 637.081,1397.29 638.581,1396.46 640,1395.5C 640.334,1397.85 640.167,1400.18 639.5,1402.5C 630.827,1402.67 622.16,1402.5 613.5,1402C 620.435,1394.4 626.602,1386.23 632,1377.5C 632.667,1374.17 632.667,1370.83 632,1367.5C 631.535,1366.07 630.701,1364.9 629.5,1364C 622.182,1362.14 617.849,1364.97 616.5,1372.5C 614.251,1366.35 615.918,1361.68 621.5,1358.5 Z"/></g>
</svg>
